<svg xmlns="http://www.w3.org/2000/svg" viewBox="0 0 24 24" width="24" height="24" fill="none" stroke="currentColor" stroke-width="1.6" stroke-linecap="round" stroke-linejoin="round">
  <!-- 뇌 외곽선 (단순화) -->
  <path d="M9 3C6.5 3 4.5 5 4.5 7.5c0 1-.3 2-.8 2.8C3 11.3 3 12.7 3.7 14c.5 1 1.5 1.5 2.8 1.5V18c0 1.1.9 2 2 2h7c1.1 0 2-.9 2-2v-2.5c1.3 0 2.3-.5 2.8-1.5.7-1.3.7-2.7 0-4-.5-.8-.8-1.8-.8-2.8C19.5 5 17.5 3 15 3c-.8 0-1.6.2-2.3.6A4 4 0 0 0 12 3c-.9 0-1.7.2-2.4.5"/>
  <!-- 회로 선 (수평) -->
  <line x1="8" y1="10" x2="16" y2="10"/>
  <!-- 회로 선 (수직) -->
  <line x1="12" y1="8" x2="12" y2="16"/>
  <!-- 회로 노드 -->
  <circle cx="9"  cy="10" r="1" fill="currentColor" stroke="none"/>
  <circle cx="15" cy="10" r="1" fill="currentColor" stroke="none"/>
  <circle cx="12" cy="8"  r="1" fill="currentColor" stroke="none"/>
  <circle cx="12" cy="14" r="1" fill="currentColor" stroke="none"/>
</svg>
